bicep_curl
version=1
nRows=500
nColumns=3
inDegrees=yes

# SIMM Motion File Header:
name bicep_curl
datacolumns 3
datarows 500
otherdata 1
range 0.0000 0.4990
endheader
time	/jointset/r_shoulder/r_shoulder_elev/value	/jointset/r_elbow/r_elbow_flex/value
0.0000	0.0000	76.1600
0.0010	0.0000	76.1582
0.0020	0.0000	76.1569
0.0030	0.0000	76.1561
0.0040	0.0000	76.1556
0.0050	0.0000	76.1556
0.0060	0.0000	76.1560
0.0070	0.0000	76.1569
0.0080	0.0000	76.1582
0.0090	0.0000	76.1599
0.0100	0.0000	76.1621
0.0110	0.0000	76.1647
0.0120	0.0000	76.1677
0.0130	0.0000	76.1712
0.0140	0.0000	76.1751
0.0150	0.0000	76.1794
0.0160	0.0000	76.1842
0.0170	0.0000	76.1894
0.0180	0.0000	76.1950
0.0190	0.0000	76.2011
0.0200	0.0000	76.2076
0.0210	0.0000	76.2146
0.0220	0.0000	76.2220
0.0230	0.0000	76.2298
0.0240	0.0000	76.2381
0.0250	0.0000	76.2468
0.0260	0.0000	76.2559
0.0270	0.0000	76.2654
0.0280	0.0000	76.2754
0.0290	0.0000	76.2859
0.0300	0.0000	76.2967
0.0310	0.0000	76.3081
0.0320	0.0000	76.3198
0.0330	0.0000	76.3320
0.0340	0.0000	76.3446
0.0350	0.0000	76.3576
0.0360	0.0000	76.3711
0.0370	0.0000	76.3850
0.0380	0.0000	76.3994
0.0390	0.0000	76.4141
0.0400	0.0000	76.4294
0.0410	0.0000	76.4450
0.0420	0.0000	76.4611
0.0430	0.0000	76.4776
0.0440	0.0000	76.4946
0.0450	0.0000	76.5120
0.0460	0.0000	76.5298
0.0470	0.0000	76.5481
0.0480	0.0000	76.5668
0.0490	0.0000	76.5859
0.0500	0.0000	76.6055
0.0510	0.0000	76.6255
0.0520	0.0000	76.6459
0.0530	0.0000	76.6668
0.0540	0.0000	76.6881
0.0550	0.0000	76.7099
0.0560	0.0000	76.7321
0.0570	0.0000	76.7547
0.0580	0.0000	76.7777
0.0590	0.0000	76.8012
0.0600	0.0000	76.8252
0.0610	0.0000	76.8495
0.0620	0.0000	76.8743
0.0630	0.0000	76.8995
0.0640	0.0000	76.9252
0.0650	0.0000	76.9513
0.0660	0.0000	76.9778
0.0670	0.0000	77.0048
0.0680	0.0000	77.0322
0.0690	0.0000	77.0600
0.0700	0.0000	77.0883
0.0710	0.0000	77.1170
0.0720	0.0000	77.1462
0.0730	0.0000	77.1758
0.0740	0.0000	77.2058
0.0750	0.0000	77.2362
0.0760	0.0000	77.2671
0.0770	0.0000	77.2984
0.0780	0.0000	77.3302
0.0790	0.0000	77.3624
0.0800	0.0000	77.3950
0.0810	0.0000	77.4281
0.0820	0.0000	77.4616
0.0830	0.0000	77.4955
0.0840	0.0000	77.5299
0.0850	0.0000	77.5647
0.0860	0.0000	77.5999
0.0870	0.0000	77.6356
0.0880	0.0000	77.6717
0.0890	0.0000	77.7082
0.0900	0.0000	77.7452
0.0910	0.0000	77.7826
0.0920	0.0000	77.8205
0.0930	0.0000	77.8588
0.0940	0.0000	77.8975
0.0950	0.0000	77.9366
0.0960	0.0000	77.9762
0.0970	0.0000	78.0163
0.0980	0.0000	78.0567
0.0990	0.0000	78.0976
0.1000	0.0000	78.1389
0.1010	0.0000	78.1807
0.1020	0.0000	78.2229
0.1030	0.0000	78.2655
0.1040	0.0000	78.3086
0.1050	0.0000	78.3521
0.1060	0.0000	78.3961
0.1070	0.0000	78.4404
0.1080	0.0000	78.4853
0.1090	0.0000	78.5305
0.1100	0.0000	78.5762
0.1110	0.0000	78.6223
0.1120	0.0000	78.6689
0.1130	0.0000	78.7158
0.1140	0.0000	78.7633
0.1150	0.0000	78.8111
0.1160	0.0000	78.8594
0.1170	0.0000	78.9081
0.1180	0.0000	78.9573
0.1190	0.0000	79.0069
0.1200	0.0000	79.0569
0.1210	0.0000	79.1074
0.1220	0.0000	79.1583
0.1230	0.0000	79.2097
0.1240	0.0000	79.2614
0.1250	0.0000	79.3136
0.1260	0.0000	79.3663
0.1270	0.0000	79.4194
0.1280	0.0000	79.4729
0.1290	0.0000	79.5268
0.1300	0.0000	79.5812
0.1310	0.0000	79.6360
0.1320	0.0000	79.6913
0.1330	0.0000	79.7470
0.1340	0.0000	79.8031
0.1350	0.0000	79.8597
0.1360	0.0000	79.9167
0.1370	0.0000	79.9741
0.1380	0.0000	80.0320
0.1390	0.0000	80.0903
0.1400	0.0000	80.1490
0.1410	0.0000	80.2082
0.1420	0.0000	80.2678
0.1430	0.0000	80.3278
0.1440	0.0000	80.3883
0.1450	0.0000	80.4492
0.1460	0.0000	80.5106
0.1470	0.0000	80.5724
0.1480	0.0000	80.6346
0.1490	0.0000	80.6972
0.1500	0.0000	80.7603
0.1510	0.0000	80.8238
0.1520	0.0000	80.8878
0.1530	0.0000	80.9522
0.1540	0.0000	81.0170
0.1550	0.0000	81.0823
0.1560	0.0000	81.1480
0.1570	0.0000	81.2141
0.1580	0.0000	81.2807
0.1590	0.0000	81.3477
0.1600	0.0000	81.4152
0.1610	0.0000	81.4830
0.1620	0.0000	81.5513
0.1630	0.0000	81.6201
0.1640	0.0000	81.6893
0.1650	0.0000	81.7589
0.1660	0.0000	81.8289
0.1670	0.0000	81.8994
0.1680	0.0000	81.9703
0.1690	0.0000	82.0417
0.1700	0.0000	82.1135
0.1710	0.0000	82.1857
0.1720	0.0000	82.2584
0.1730	0.0000	82.3315
0.1740	0.0000	82.4050
0.1750	0.0000	82.4790
0.1760	0.0000	82.5534
0.1770	0.0000	82.6282
0.1780	0.0000	82.7035
0.1790	0.0000	82.7792
0.1800	0.0000	82.8554
0.1810	0.0000	82.9319
0.1820	0.0000	83.0090
0.1830	0.0000	83.0864
0.1840	0.0000	83.1643
0.1850	0.0000	83.2426
0.1860	0.0000	83.3214
0.1870	0.0000	83.4006
0.1880	0.0000	83.4802
0.1890	0.0000	83.5602
0.1900	0.0000	83.6407
0.1910	0.0000	83.7217
0.1920	0.0000	83.8030
0.1930	0.0000	83.8848
0.1940	0.0000	83.9671
0.1950	0.0000	84.0498
0.1960	0.0000	84.1329
0.1970	0.0000	84.2164
0.1980	0.0000	84.3004
0.1990	0.0000	84.3848
0.2000	0.0000	84.4696
0.2010	0.0000	84.5549
0.2020	0.0000	84.6406
0.2030	0.0000	84.7268
0.2040	0.0000	84.8134
0.2050	0.0000	84.9004
0.2060	0.0000	84.9879
0.2070	0.0000	85.0758
0.2080	0.0000	85.1641
0.2090	0.0000	85.2529
0.2100	0.0000	85.3421
0.2110	0.0000	85.4317
0.2120	0.0000	85.5218
0.2130	0.0000	85.6123
0.2140	0.0000	85.7032
0.2150	0.0000	85.7946
0.2160	0.0000	85.8864
0.2170	0.0000	85.9786
0.2180	0.0000	86.0713
0.2190	0.0000	86.1644
0.2200	0.0000	86.2580
0.2210	0.0000	86.3520
0.2220	0.0000	86.4464
0.2230	0.0000	86.5413
0.2240	0.0000	86.6366
0.2250	0.0000	86.7323
0.2260	0.0000	86.8284
0.2270	0.0000	86.9250
0.2280	0.0000	87.0221
0.2290	0.0000	87.1195
0.2300	0.0000	87.2175
0.2310	0.0000	87.3158
0.2320	0.0000	87.4146
0.2330	0.0000	87.5138
0.2340	0.0000	87.6134
0.2350	0.0000	87.7135
0.2360	0.0000	87.8140
0.2370	0.0000	87.9150
0.2380	0.0000	88.0163
0.2390	0.0000	88.1182
0.2400	0.0000	88.2204
0.2410	0.0000	88.3231
0.2420	0.0000	88.4262
0.2430	0.0000	88.5298
0.2440	0.0000	88.6338
0.2450	0.0000	88.7382
0.2460	0.0000	88.8431
0.2470	0.0000	88.9484
0.2480	0.0000	89.0541
0.2490	0.0000	89.1603
0.2500	0.0000	89.2669
0.2510	0.0000	89.3740
0.2520	0.0000	89.4814
0.2530	0.0000	89.5893
0.2540	0.0000	89.6977
0.2550	0.0000	89.8065
0.2560	0.0000	89.9157
0.2570	0.0000	90.0253
0.2580	0.0000	90.1354
0.2590	0.0000	90.2460
0.2600	0.0000	90.3569
0.2610	0.0000	90.4683
0.2620	0.0000	90.5801
0.2630	0.0000	90.6924
0.2640	0.0000	90.8051
0.2650	0.0000	90.9182
0.2660	0.0000	91.0318
0.2670	0.0000	91.1458
0.2680	0.0000	91.2603
0.2690	0.0000	91.3751
0.2700	0.0000	91.4904
0.2710	0.0000	91.6062
0.2720	0.0000	91.7224
0.2730	0.0000	91.8390
0.2740	0.0000	91.9560
0.2750	0.0000	92.0735
0.2760	0.0000	92.1914
0.2770	0.0000	92.3098
0.2780	0.0000	92.4286
0.2790	0.0000	92.5478
0.2800	0.0000	92.6675
0.2810	0.0000	92.7876
0.2820	0.0000	92.9081
0.2830	0.0000	93.0291
0.2840	0.0000	93.1505
0.2850	0.0000	93.2723
0.2860	0.0000	93.3946
0.2870	0.0000	93.5173
0.2880	0.0000	93.6404
0.2890	0.0000	93.7640
0.2900	0.0000	93.8880
0.2910	0.0000	94.0125
0.2920	0.0000	94.1374
0.2930	0.0000	94.2627
0.2940	0.0000	94.3884
0.2950	0.0000	94.5146
0.2960	0.0000	94.6413
0.2970	0.0000	94.7683
0.2980	0.0000	94.8958
0.2990	0.0000	95.0238
0.3000	0.0000	95.1521
0.3010	0.0000	95.2809
0.3020	0.0000	95.4102
0.3030	0.0000	95.5398
0.3040	0.0000	95.6699
0.3050	0.0000	95.8005
0.3060	0.0000	95.9315
0.3070	0.0000	96.0629
0.3080	0.0000	96.1947
0.3090	0.0000	96.3270
0.3100	0.0000	96.4597
0.3110	0.0000	96.5929
0.3120	0.0000	96.7265
0.3130	0.0000	96.8605
0.3140	0.0000	96.9949
0.3150	0.0000	97.1298
0.3160	0.0000	97.2652
0.3170	0.0000	97.4009
0.3180	0.0000	97.5371
0.3190	0.0000	97.6738
0.3200	0.0000	97.8108
0.3210	0.0000	97.9483
0.3220	0.0000	98.0863
0.3230	0.0000	98.2246
0.3240	0.0000	98.3635
0.3250	0.0000	98.5027
0.3260	0.0000	98.6424
0.3270	0.0000	98.7825
0.3280	0.0000	98.9230
0.3290	0.0000	99.0640
0.3300	0.0000	99.2055
0.3310	0.0000	99.3473
0.3320	0.0000	99.4896
0.3330	0.0000	99.8763
0.3340	0.0000	99.2880
0.3350	0.0000	98.7016
0.3360	0.0000	98.1172
0.3370	0.0000	97.5349
0.3380	0.0000	96.9546
0.3390	0.0000	96.3762
0.3400	0.0000	95.7999
0.3410	0.0000	95.2256
0.3420	0.0000	94.6533
0.3430	0.0000	94.0830
0.3440	0.0000	93.5147
0.3450	0.0000	92.9484
0.3460	0.0000	92.3841
0.3470	0.0000	91.8218
0.3480	0.0000	91.2615
0.3490	0.0000	90.7033
0.3500	0.0000	90.1470
0.3510	0.0000	89.5928
0.3520	0.0000	89.0406
0.3530	0.0000	88.4903
0.3540	0.0000	87.9421
0.3550	0.0000	87.3959
0.3560	0.0000	86.8517
0.3570	0.0000	86.3095
0.3580	0.0000	85.7693
0.3590	0.0000	85.2311
0.3600	0.0000	84.6949
0.3610	0.0000	84.1608
0.3620	0.0000	83.6286
0.3630	0.0000	83.0985
0.3640	0.0000	82.5703
0.3650	0.0000	82.0442
0.3660	0.0000	81.5200
0.3670	0.0000	80.9979
0.3680	0.0000	80.4778
0.3690	0.0000	79.9597
0.3700	0.0000	79.4436
0.3710	0.0000	78.9295
0.3720	0.0000	78.4174
0.3730	0.0000	77.9074
0.3740	0.0000	77.3993
0.3750	0.0000	76.8932
0.3760	0.0000	76.3892
0.3770	0.0000	75.8871
0.3780	0.0000	75.3871
0.3790	0.0000	74.8891
0.3800	0.0000	74.3930
0.3810	0.0000	73.8990
0.3820	0.0000	73.4070
0.3830	0.0000	72.9170
0.3840	0.0000	72.4290
0.3850	0.0000	71.9430
0.3860	0.0000	71.4591
0.3870	0.0000	70.9771
0.3880	0.0000	70.4971
0.3890	0.0000	70.0192
0.3900	0.0000	69.5432
0.3910	0.0000	69.0693
0.3920	0.0000	68.5974
0.3930	0.0000	68.1275
0.3940	0.0000	67.6595
0.3950	0.0000	67.1936
0.3960	0.0000	66.7297
0.3970	0.0000	66.2678
0.3980	0.0000	65.8080
0.3990	0.0000	65.3501
0.4000	0.0000	64.8942
0.4010	0.0000	64.4404
0.4020	0.0000	63.9885
0.4030	0.0000	63.5387
0.4040	0.0000	63.0908
0.4050	0.0000	62.6450
0.4060	0.0000	62.2012
0.4070	0.0000	61.7593
0.4080	0.0000	61.3195
0.4090	0.0000	60.8817
0.4100	0.0000	60.4459
0.4110	0.0000	60.0122
0.4120	0.0000	59.5804
0.4130	0.0000	59.1506
0.4140	0.0000	58.7228
0.4150	0.0000	58.2971
0.4160	0.0000	57.8733
0.4170	0.0000	57.4516
0.4180	0.0000	57.0319
0.4190	0.0000	56.6142
0.4200	0.0000	56.1984
0.4210	0.0000	55.7847
0.4220	0.0000	55.3730
0.4230	0.0000	54.9633
0.4240	0.0000	54.5557
0.4250	0.0000	54.1500
0.4260	0.0000	53.7463
0.4270	0.0000	53.3446
0.4280	0.0000	52.9450
0.4290	0.0000	52.5473
0.4300	0.0000	52.1517
0.4310	0.0000	51.7581
0.4320	0.0000	51.3664
0.4330	0.0000	50.9768
0.4340	0.0000	50.5892
0.4350	0.0000	50.2036
0.4360	0.0000	49.8200
0.4370	0.0000	49.4384
0.4380	0.0000	49.0589
0.4390	0.0000	48.6813
0.4400	0.0000	48.3057
0.4410	0.0000	47.9322
0.4420	0.0000	47.5606
0.4430	0.0000	47.1911
0.4440	0.0000	46.8236
0.4450	0.0000	46.4580
0.4460	0.0000	46.0945
0.4470	0.0000	45.7330
0.4480	0.0000	45.3735
0.4490	0.0000	45.0160
0.4500	0.0000	44.6605
0.4510	0.0000	44.3070
0.4520	0.0000	43.9556
0.4530	0.0000	43.6061
0.4540	0.0000	43.2587
0.4550	0.0000	42.9132
0.4560	0.0000	42.5698
0.4570	0.0000	42.2283
0.4580	0.0000	41.8889
0.4590	0.0000	41.5515
0.4600	0.0000	41.2161
0.4610	0.0000	40.8827
0.4620	0.0000	40.5513
0.4630	0.0000	40.2219
0.4640	0.0000	39.8945
0.4650	0.0000	39.5691
0.4660	0.0000	39.2458
0.4670	0.0000	38.9244
0.4680	0.0000	38.6051
0.4690	0.0000	38.2877
0.4700	0.0000	37.9724
0.4710	0.0000	37.6591
0.4720	0.0000	37.3478
0.4730	0.0000	37.0384
0.4740	0.0000	36.7311
0.4750	0.0000	36.4258
0.4760	0.0000	36.1226
0.4770	0.0000	35.8213
0.4780	0.0000	35.5220
0.4790	0.0000	35.2247
0.4800	0.0000	34.9295
0.4810	0.0000	34.6362
0.4820	0.0000	34.3450
0.4830	0.0000	34.0558
0.4840	0.0000	33.7685
0.4850	0.0000	33.4833
0.4860	0.0000	33.2001
0.4870	0.0000	32.9189
0.4880	0.0000	32.6397
0.4890	0.0000	32.3625
0.4900	0.0000	32.0873
0.4910	0.0000	31.8142
0.4920	0.0000	31.5430
0.4930	0.0000	31.2738
0.4940	0.0000	31.0067
0.4950	0.0000	30.7416
0.4960	0.0000	30.4784
0.4970	0.0000	30.2173
0.4980	0.0000	29.9582
0.4990	0.0000	29.7011
